<svg width="1024" height="1024" viewBox="0 0 1024 1024" fill="none" xmlns="http://www.w3.org/2000/svg">
<g clip-path="url(#clip0_12_4)">
<path d="M256.919 797.452C249.031 795.338 243.588 790.86 239.423 786.121C226.102 770.473 227.895 748.005 243.704 725.065L411.7 478.994L351.973 462.991C345.09 461.253 338.742 457.843 333.491 453.066C328.24 448.288 324.249 442.289 321.87 435.6C317.152 421.653 320.665 406.289 330.789 393.3L499.083 179.92C513.836 160.925 541.165 151.338 563.703 157.377L772.746 213.39C787.396 217.315 798.543 227.549 802.849 240.781C804.884 248.028 805.136 255.66 803.583 263.026C802.03 270.391 798.718 277.272 793.93 283.081L617.246 473.679L678.663 490.136C697.257 495.118 708.928 507.908 711.2 524.218C711.753 533.425 710.523 556.044 677.247 574.304L301.495 788.863C281.792 799.286 267.062 800.17 256.919 797.452Z" fill="#10110D"/>
</g>
<defs>
<clipPath id="clip0_12_4">
<rect width="700" height="700" fill="white" transform="translate(260 76) rotate(15)"/>
</clipPath>
</defs>
</svg>
