<svg width="1024" height="1024" viewBox="0 0 1024 1024" fill="none" xmlns="http://www.w3.org/2000/svg">
<g clip-path="url(#clip0_12_6)">
<path d="M256.919 830.452C249.031 828.338 243.588 823.86 239.423 819.121C226.102 803.473 227.895 781.005 243.704 758.065L411.7 511.994L351.973 495.991C345.09 494.253 338.742 490.843 333.491 486.066C328.24 481.288 324.249 475.289 321.87 468.6C317.152 454.653 320.665 439.289 330.789 426.3L499.083 212.92C513.836 193.925 541.165 184.338 563.703 190.377L772.746 246.39C787.396 250.315 798.543 260.549 802.849 273.781C804.884 281.028 805.136 288.66 803.583 296.026C802.03 303.391 798.718 310.272 793.93 316.081L617.246 506.679L678.663 523.136C697.257 528.118 708.928 540.908 711.2 557.218C711.753 566.425 710.523 589.044 677.247 607.304L301.495 821.863C281.792 832.286 267.062 833.17 256.919 830.452Z" fill="#11120E"/>
</g>
<defs>
<clipPath id="clip0_12_6">
<rect width="700" height="700" fill="white" transform="translate(260 109) rotate(15)"/>
</clipPath>
</defs>
</svg>
